<svg xmlns="http://www.w3.org/2000/svg" xmlns:xlink="http://www.w3.org/1999/xlink" width="58px" height="56px" viewBox="0 0 58 56" version="1.1">
    <title>logo</title>
    <g id="logo" stroke="none" stroke-width="1" fill="none" fill-rule="evenodd">
        <g id="Group-2" transform="translate(0.000000, 5.000000)" fill="#1A1A1A">
            <g id="Group" transform="translate(14.000000, 10.000000)" fill-rule="nonzero">
                <path d="M1.2819426,-5.17920154e-17 L10.7180574,5.17920154e-17 C11.1638168,-3.00926524e-17 11.3254599,0.0464128056 11.4884229,0.133566352 C11.6513858,0.220719898 11.7792801,0.348614185 11.8664336,0.511577148 C11.9535872,0.674540111 12,0.83618323 12,1.2819426 L12,24.7180574 C12,25.1638168 11.9535872,25.3254599 11.8664336,25.4884229 C11.7792801,25.6513858 11.6513858,25.7792801 11.4884229,25.8664336 C11.3254599,25.9535872 11.1638168,26 10.7180574,26 L1.2819426,26 C0.83618323,26 0.674540111,25.9535872 0.511577148,25.8664336 C0.348614185,25.7792801 0.220719898,25.6513858 0.133566352,25.4884229 C0.0464128056,25.3254599 2.00617683e-17,25.1638168 -3.45280103e-17,24.7180574 L3.45280103e-17,1.2819426 C-2.00617683e-17,0.83618323 0.0464128056,0.674540111 0.133566352,0.511577148 C0.220719898,0.348614185 0.348614185,0.220719898 0.511577148,0.133566352 C0.674540111,0.0464128056 0.83618323,3.00926524e-17 1.2819426,-5.17920154e-17 Z" id="Rectangle"/>
                <path d="M32,20 C32,23.3137085 29.0898509,26 25.5,26 L15,26 C14.4477153,26 14,25.5522847 14,25 L14,15 C14,14.4477153 14.4477153,14 15,14 L25.5,14 L25.5,14 C29.0898509,14 32,16.6862915 32,20 Z" id="Rectangle-Copy"/>
                <circle id="Oval" cx="20" cy="6" r="6"/>
            </g>
            <path d="M0,27 L8,27 L8,19 L0,19 L0,27 Z M58,19 L58,27 L50,27 L50,19 L58,19 Z M56,21 L52,21 L52,25 L56,25 L56,21 Z M6,21 L6,25 L2,25 L2,21 L6,21 Z" id="Combined-Shape" fill-rule="nonzero"/>
            <path d="M55,19 L53,19 L53,2 L5,2 L5,19 L3,19 L3,0 L55,0 L55,19 Z" id="Combined-Shape"/>
            <path d="M55,46 L53,46 L53,29 L5,29 L5,46 L3,46 L3,27 L55,27 L55,46 Z" id="Combined-Shape" transform="translate(29.000000, 36.500000) scale(1, -1) translate(-29.000000, -36.500000) "/>
        </g>
    </g>
</svg>